<svg xmlns="http://www.w3.org/2000/svg" viewBox="70 74 1046 292" color="#E5E5E5" role="img" aria-label="Barbearia Elliot">
  <path fill="currentColor" d="M160 196c1.332 2.663 1.127 4.689 1.13 7.671l.009 3.6-.006 3.909.003 3.998q.001 4.194-.006 8.388-.006 5.37.004 10.74.005 4.131 0 8.261 0 2.942.005 5.883l-.01 3.62-.002 3.185c-.112 2.417-.43 4.438-1.127 6.745l-2.758.677q-12.847 3.151-25.692 6.312-6.605 1.625-13.21 3.245a14142 14142 0 0 0-12.741 3.132l-4.868 1.195q-3.402.834-6.803 1.673l-2.046.5c-3.532.873-3.532.873-6.882 2.266-2.69.187-5.297.086-8 0l-1-1c-.101-2.885-.139-5.74-.125-8.625l-.012-2.41c.008-4.76.344-9.272 1.137-13.965h-2c-.096-9.139-.09-18.248.438-27.375l.118-2.14c.208-3.28.59-6.317 1.444-9.485l2.615-.644c8.49-2.107 16.963-4.275 25.428-6.485l3.226-.842q6.634-1.732 13.267-3.468C154.246 196 154.246 196 160 196M161 281q.075 7.12.11 14.24.015 2.412.04 4.826c.143 13.43.145 26.134-6.459 38.211-4.293 6.912-9.02 11.542-16.18 15.47L136 355l-2.043 1.035c-7.377 3.068-16.118 2.936-23.957 1.965-7.326-1.576-14.004-4.505-20-9v-2h-2c-5.85-5.68-8.651-13.367-11-21-1.876-8.03-1.09-16.8-1-25 7.684-2.704 15.483-4.74 23.379-6.723l4.141-1.049q5.417-1.37 10.836-2.734 5.494-1.386 10.986-2.777c14.31-3.62 14.31-3.62 19.579-4.934 1.86-.473 3.716-.963 5.563-1.485 3.859-1.078 6.647-1.507 10.516-.298M133.063 80.625c7.105 3.106 13.661 7.14 18.527 13.266 4.681 7.003 8.509 14.66 9.41 23.109.246 4.555.451 8.646-1 13a62 62 0 0 1-6.995 2.069l-2.217.558c-2.43.608-4.865 1.198-7.3 1.787q-2.532.627-5.064 1.258a3260 3260 0 0 1-13.374 3.283c-3.629.888-7.255 1.787-10.882 2.686q-6.494 1.61-12.992 3.21l-2.497.616q-3.518.865-7.037 1.723l-2.084.513C81.541 149.65 81.541 149.65 78 150l-2-2c-.259-2.715-.259-2.715-.266-6.152l-.007-3.795.023-3.99-.023-3.885C75.749 119.154 77.17 109.338 81 99h2l.688-2.187c2.4-5.145 6.586-8.13 11.062-11.438 11.168-7.495 25.424-9.095 38.313-4.75M79 215c2.125.438 2.125.438 4 1l-5 1 .215 1.815c.695 6.287.918 12.465.883 18.787l-.005 2.916c-.005 3.036-.018 6.071-.03 9.107q-.008 3.11-.014 6.223Q79.032 263.423 79 271h-2c-.826-5.606-1.068-10.423 0-16h-2c-.096-9.139-.09-18.248.438-27.375l.118-2.14c.428-6.754.428-6.754 1.444-9.485zM79 215c2.125.438 2.125.438 4 1l-5 1 1 6-3-1c.375-2.937.375-2.937 1-6zM891.504 114.508A73.8 73.8 0 0 1 905 122l2.16 1.422c1.662 1.123 3.26 2.342 4.84 3.578v2h2v2l1.813.75c2.503 1.43 3.668 2.82 5.187 5.25v2l3 1a78 78 0 0 1 4.25 6.125l1.198 1.908c12.81 20.836 18.793 44.474 19.516 68.826.401 23.765-5.56 47.22-16.912 68.059-3.147 5.514-6.872 10.326-11.052 15.082l-2.105 2.54c-5.197 6.141-5.197 6.141-8.633 7.71L908 311v2c-5.595 4.73-12.108 7.703-19 10l-2.668.91c-10.7 3.173-22.67 3.376-33.582 1.027-6.99-2.022-13.374-5.494-19.75-8.937v-2l-5-1v-2h-2c-1.768-1.612-3.374-3.25-5-5l-1.79-1.844c-13.538-14.456-22.274-32.6-27.202-51.644A299 299 0 0 1 791 248l-.562-2.597c-1.719-8.956-1.838-17.817-1.813-26.903l.004-2.416c.094-22.892 4.666-43.97 16.169-64.042a349 349 0 0 1 4.89-8.105l1.761-2.847L813 139h2l.8-1.773c4.288-7.961 12.85-13.22 20.302-17.954 16.543-10.001 37.354-11.491 55.402-4.765M253 118q27.159-.035 54.318-.052 12.61-.007 25.22-.023 10.986-.015 21.972-.02 5.82 0 11.642-.01 5.472-.01 10.945-.008 2.98-.002 5.957-.011l3.549.004 3.103-.003L392 118l1 1c.101 2.8.14 5.575.133 8.375l.003 2.544q0 2.67-.006 5.337-.005 4.099.007 8.197 0 2.586-.004 5.172l.006 2.494A184 184 0 0 1 393 157l-1 1c-3.075.095-6.127.126-9.201.114h-2.927c-3.209 0-6.417-.009-9.626-.016l-6.654-.005q-8.776-.006-17.553-.024-8.949-.014-17.896-.02A42216 42216 0 0 1 293 158v41l18-1c5.027-.085 10.04-.141 15.066-.133q2.01 0 4.019-.003 4.14-.002 8.28.006 5.313.006 10.625-.004 5.1-.004 10.201.001l3.857-.006 3.525.01 3.112.002L372 198l1 1c.101 2.8.14 5.575.133 8.375l.003 2.544q0 2.67-.006 5.337c-.005 2.732 0 5.465.007 8.197q0 2.586-.004 5.172l.006 2.494A184 184 0 0 1 373 237l-1 1c-2.463.125-4.9.186-7.365.205l-2.336.03q-3.84.047-7.678.081l-5.31.063q-7 .083-14.001.153-8.393.091-16.785.19c-8.508.099-17.017.187-25.525.278v40l18-1c3.163-.077 6.303-.139 9.463-.13l2.397-.005q3.79-.004 7.581.002l5.364-.003q5.552-.002 11.105.006 7.128.006 14.257-.004 5.506-.005 11.012 0 2.633 0 5.265-.002 3.646-.003 7.293.007l2.198-.007c1.689.008 3.378.066 5.065.136l1 1v39H253c-1.138-10.245-1.138-10.245-1.125-14.75l-.008-2.672c.135-2.614.555-5.028 1.133-7.578h-2c-.098-30.813.123-61.625.34-92.438q.091-13.134.172-26.27.057-9.356.125-18.71.04-5.55.072-11.099.036-6.125.086-12.251l.017-3.689.03-3.344.02-2.914C252 120 252 120 253 118M965 118c1.848-.096 3.699-.122 5.55-.12l3.65-.004 4.04.01h4.227q5.756.001 11.51.013 6.007.007 12.016.008 11.385.005 22.769.021 12.957.015 25.915.022 26.661.016 53.323.05c1.608 3.217 1.142 6.722 1.133 10.254l.003 2.473q0 2.588-.006 5.177c-.005 2.651 0 5.302.007 7.953q0 2.511-.004 5.022l.006 2.418A174 174 0 0 1 1109 157l-1 1h-49v160c-35 1-35 1-40 0-1.095-8.35-1.877-16.716 0-25h-2q-.035-22.767-.052-45.534-.007-10.573-.023-21.146-.017-10.212-.02-20.424-.003-3.887-.01-7.774-.01-5.464-.009-10.928l-.01-3.213c.008-6.153.338-12.177 1.007-18.296.12-2.748-.231-5.023-.883-7.685l-1.75.045q-9.028.227-18.056.437-3.367.08-6.736.166-4.845.122-9.688.23l-3.038.083-2.85.06-2.496.061c-2.556-.088-4.896-.516-7.386-1.082-1.043-7.484-1.154-14.897-1.13-22.441.005-2.083 0-4.164-.007-6.246l.004-3.97.004-3.618L964 119zM430.473 117.867l2.54-.003q2.659 0 5.318.006 4.085.005 8.171-.007 2.58 0 5.158.004l2.484-.006c1.953.008 3.905.068 5.856.139l1 1c.097 2.063.122 4.13.12 6.194l.003 1.983c.002 2.208-.004 4.416-.01 6.624l.001 4.73q-.001 6.44-.013 12.879c-.006 4.482-.006 8.963-.008 13.445q-.005 12.74-.021 25.478-.016 14.499-.022 28.999-.016 29.834-.05 59.668l3.408-.214c9.894-.6 19.743-.935 29.658-.919q2.01 0 4.019-.003 4.14-.002 8.28.006 5.312.006 10.625-.004c3.4-.004 6.801-.001 10.201.001l3.857-.006 3.525.01 3.112.002L540 278l1 1c.089 2.884.115 5.745.098 8.629l-.005 2.619c-.005 2.771-.018 5.543-.03 8.315q-.009 2.81-.014 5.623-.017 6.907-.049 13.814-22.361.231-44.723.443-10.383.098-20.767.205-10.017.104-20.035.195-3.825.036-7.649.078-5.35.056-10.702.1l-3.204.04-2.953.021-2.556.025c-2.557-.113-4.917-.543-7.411-1.107-.683-5.378-1-10.573-1-16l-.492-1.806c-.664-2.868-.634-5.542-.635-8.487l-.009-3.924.007-4.3-.006-4.535q-.005-6.165 0-12.332c.003-4.32 0-8.641 0-12.962q-.003-10.913.005-21.825.007-12.535-.002-25.07-.007-10.806-.003-21.614.003-6.432-.001-12.865c-.012-17.784.06-35.52 1.136-53.28 3.27-1.635 6.88-1.142 10.473-1.133M573 118c2.873-.101 5.72-.14 8.594-.133l2.611-.003q2.739 0 5.478.006 4.207.005 8.415-.007 2.655 0 5.308.004l2.56-.006c2.012.008 4.023.068 6.034.139l1 1c.097 2.063.122 4.13.12 6.194l.003 1.983q.001 3.312-.01 6.624l.001 4.73q-.001 6.44-.013 12.879c-.006 4.482-.006 8.963-.008 13.445q-.005 12.74-.021 25.478-.015 14.499-.022 28.999-.016 29.834-.05 59.668l3.408-.214c9.894-.6 19.743-.935 29.658-.919q2.01 0 4.019-.003 4.14-.002 8.28.006 5.313.006 10.625-.004c3.4-.004 6.801-.001 10.201.001l3.857-.006 3.525.01 3.112.002L692 278l1 1c.089 2.884.115 5.745.098 8.629l-.005 2.619c-.005 2.771-.018 5.543-.03 8.315q-.008 2.81-.014 5.623-.017 6.907-.049 13.814-22.362.231-44.723.443-10.383.098-20.767.205-10.017.104-20.035.195-3.825.036-7.649.078-5.35.056-10.702.1l-3.204.04-2.953.021-2.556.025c-2.557-.113-4.917-.543-7.411-1.107-.826-5.606-1.068-10.423 0-16h-2a85 85 0 0 1 2-7h-2q-.035-29.106-.052-58.212-.007-13.518-.023-27.036-.015-11.8-.02-23.6 0-6.232-.01-12.465c-.026-14.956-.045-29.902.549-44.85l.117-3.03c.234-5.048.234-5.048.439-6.807zM725 118c2.873-.101 5.72-.14 8.594-.133l2.611-.003q2.739 0 5.478.006 4.207.005 8.415-.007 2.655 0 5.308.004l2.56-.006c2.012.008 4.023.068 6.034.139l1 1c.098 2.567.13 5.107.12 7.675l.003 2.465c.002 2.747-.004 5.494-.01 8.241l.001 5.882q-.001 8.011-.013 16.022c-.006 5.575-.006 11.15-.008 16.725q-.005 15.846-.021 31.693a70695 70695 0 0 0-.022 36.072q-.016 37.112-.05 74.225-7.34.252-14.679.482-2.495.08-4.99.166c-2.395.083-4.79.157-7.186.23l-2.242.083c-3.79.109-7.222-.023-10.903-.961-.826-5.606-1.068-10.423 0-16h-2a85 85 0 0 1 2-7h-2q-.035-29.106-.052-58.212-.007-13.518-.023-27.036-.015-11.8-.02-23.6 0-6.232-.01-12.465c-.026-14.956-.045-29.902.549-44.85l.117-3.03c.234-5.048.234-5.048.439-6.807zM421 126h2v183h-2c-2.034-8.836-2.28-17.405-2.243-26.439l-.006-4.577c-.004-4.114.003-8.227.013-12.341.01-4.327.007-8.654.007-12.98q.002-10.902.023-21.801.023-12.554.02-25.107.001-13.428.016-26.856l.003-7.68q.002-6.065.017-12.132.004-2.209.004-4.418c-.002-9.23.049-18.493 1.146-27.669zM725 132h2v177h-2v-7h-2a85 85 0 0 1 2-7h-2a91962 91962 0 0 1-.052-58.937q-.007-13.684-.023-27.367-.015-11.931-.02-23.862 0-6.314-.01-12.627-.012-5.952-.008-11.903 0-2.175-.006-4.35c-.042-16.435-.042-16.435 1.119-22.954zM573 132h2v177h-2v-7h-2a85 85 0 0 1 2-7h-2a91962 91962 0 0 1-.052-58.937q-.007-13.684-.023-27.367-.015-11.931-.02-23.862 0-6.314-.01-12.627-.012-5.952-.008-11.903 0-2.175-.006-4.35c-.042-16.435-.042-16.435 1.119-22.954zM1008 156c7.218-.24 7.218-.24 10.438.75L1020 158c1.166 3.352 1.123 6.576 1.12 10.1l.004 3.79-.01 4.15v4.376q-.001 5.938-.013 11.875c-.006 4.137-.006 8.275-.008 12.412q-.005 11.751-.021 23.502-.015 13.379-.022 26.756-.016 27.52-.05 55.039l-3-1q-.04-2.594-.062-5.187l-.036-2.918c.093-2.75.477-5.22 1.098-7.895h-2q-.035-22.767-.052-45.534-.007-10.573-.023-21.146-.017-10.212-.02-20.424-.003-3.887-.01-7.774-.01-5.464-.009-10.928l-.01-3.213c.008-6.153.338-12.177 1.007-18.296.12-2.748-.231-5.023-.883-7.685h-8zM253 132h2v177h-2a557 557 0 0 1-.562-5.187l-.317-2.918c-.119-2.837.201-5.15.879-7.895h-2c-.088-29.136.112-58.27.34-87.404q.091-11.85.172-23.702.057-8.453.125-16.904.039-5.01.072-10.02.037-5.522.086-11.045l.017-3.331.03-3.008.02-2.627c.045-.646.09-1.293.138-1.959zM610 123h1v141h2q.039 2.188.063 4.375l.035 2.46C613 273 613 273 612 275h-2zM458 123h1v141h2q.039 2.188.063 4.375l.035 2.46C461 273 461 273 460 275h-2zM288 156h10l1 2h-6l.016 3.181q.026 5.832.039 11.663.008 2.526.02 5.052c.013 2.417.018 4.835.023 7.252l.015 2.29c0 5.334 0 5.334-1.113 7.562h-2l-.076-3.257a6045 6045 0 0 0-.296-11.96q-.065-2.587-.125-5.176-.088-3.72-.187-7.439l-.05-2.34c-.088-3.18-.253-5.79-1.266-8.828M965 125h2v25h-2c-1.263-7.892-2.552-17.344 0-25M290 256h3q.04 4.188.063 8.375l.025 2.406c.025 5.992.025 5.992-1.088 8.219h-2zM1056 156a75 75 0 0 1 4.563-.062l2.503.027L1065 156v2h-6v7h-2l-1 2q-.29-2.468-.562-4.937l-.317-2.778L1055 157zM1019 311h2v5h6l1 2c-2.554.851-4.05.992-6.75.563L1019 318zM965 151h2v5h6l1 2c-2.554.851-4.05.992-6.75.563L965 158zM421 126h2v9h-2l-1 2a758 758 0 0 1-.062-4.937l-.036-2.778L420 127zm725 312 2 1 1 3c2.015.733 2.015.733 4 1v2l-7-1c-.562-1.875-.562-1.875-1-4zM573 312l2 1 1 3c2.015.733 2.015.733 4 1v2l-7-1c-.562-1.875-.562-1.875-1-4zM946 214h2a76 76 0 0 1 1 5l-1 2h-2z"/>
  <path fill="#E8B004" d="M160 148c.887 5.338 1.16 10.485 1.168 15.89l.01 2.505q.007 2.603.007 5.204c.003 2.657.02 5.314.04 7.971q.005 2.535.005 5.07l.022 2.406c-.008 1.986-.122 3.972-.252 5.954l-2 3c-1.946.792-1.946.792-4.356 1.386l-2.739.693-2.983.718-3.104.777q-3.26.814-6.523 1.615c-3.173.781-6.341 1.58-9.508 2.387a3882 3882 0 0 1-15.426 3.894q-4.728 1.186-9.455 2.382l-6.14 1.539-2.791.707C89.69 213.664 83.385 214.91 77 216q-.074-9.986-.11-19.97-.015-3.4-.04-6.799c-.025-3.251-.036-6.503-.045-9.754l-.032-3.085v-2.85l-.014-2.517L77 169c2-2 2-2 4.813-2.872l3.637-.884 2.006-.493c2.194-.539 4.39-1.067 6.587-1.595l4.582-1.12q6.044-1.476 12.09-2.937c5.662-1.371 11.322-2.754 16.981-4.135a429070.084 429070.084 0 0 0 13.207-3.208l3.65-.884a201 201 0 0 0 7.207-1.974c2.947-.817 5.21-1.082 8.24-.898"/>
  <path fill="#0D0D0D" d="M875.27 147.453c1.595.455 3.167.991 4.73 1.547v2l5 1 1 3 1.82.863c3.956 2.063 5.81 5.94 8.157 9.617 8.895 15.038 12.343 33.096 13.058 50.395.079 18.897-3.721 37.14-12.035 54.125l-2 3h-2l-.187 1.688c-1.17 3.329-3.218 4.948-5.813 7.312l-2.875 2.625c-3.408 2.59-6.03 4.1-10.125 5.375-6.048.66-11.68.424-17.3-2.027-2.746-1.572-4.61-3.616-6.7-5.973l-1.578-1.316c-7.482-6.454-11.294-16.103-14.746-25.157-4.011-12.272-5.043-24.553-4.989-37.402l.011-4c.102-9.104.813-17.338 3.302-26.125l.621-2.871c2.38-10.42 7.814-19.952 14.555-28.191 7.931-8.425 16.572-11.785 28.094-9.485"/>
</svg>
